<svg viewBox="0 0 968 732" xmlns="http://www.w3.org/2000/svg" font-family="Consolas,monospace">
<rect width="968" height="732" fill="#0a120c"/>
<text x="44" y="52" fill="#ffb347" font-size="25" letter-spacing="1">DELTA-7 · RANGÉES G–J — CARTE TACTIQUE</text>
<text x="44" y="80" fill="#5f8f6e" font-size="16">1 case ≈ 1,5 m · vue de dessus · épisode 1</text>
<rect x="44" y="272" width="880" height="160" fill="#13251a"/>
<line x1="44" y1="112" x2="44" y2="592" stroke="#1d3b29" stroke-width="1"/>
<line x1="84" y1="112" x2="84" y2="592" stroke="#1d3b29" stroke-width="1"/>
<line x1="124" y1="112" x2="124" y2="592" stroke="#1d3b29" stroke-width="1"/>
<line x1="164" y1="112" x2="164" y2="592" stroke="#1d3b29" stroke-width="1"/>
<line x1="204" y1="112" x2="204" y2="592" stroke="#1d3b29" stroke-width="1"/>
<line x1="244" y1="112" x2="244" y2="592" stroke="#1d3b29" stroke-width="1"/>
<line x1="284" y1="112" x2="284" y2="592" stroke="#1d3b29" stroke-width="1"/>
<line x1="324" y1="112" x2="324" y2="592" stroke="#1d3b29" stroke-width="1"/>
<line x1="364" y1="112" x2="364" y2="592" stroke="#1d3b29" stroke-width="1"/>
<line x1="404" y1="112" x2="404" y2="592" stroke="#1d3b29" stroke-width="1"/>
<line x1="444" y1="112" x2="444" y2="592" stroke="#1d3b29" stroke-width="1"/>
<line x1="484" y1="112" x2="484" y2="592" stroke="#1d3b29" stroke-width="1"/>
<line x1="524" y1="112" x2="524" y2="592" stroke="#1d3b29" stroke-width="1"/>
<line x1="564" y1="112" x2="564" y2="592" stroke="#1d3b29" stroke-width="1"/>
<line x1="604" y1="112" x2="604" y2="592" stroke="#1d3b29" stroke-width="1"/>
<line x1="644" y1="112" x2="644" y2="592" stroke="#1d3b29" stroke-width="1"/>
<line x1="684" y1="112" x2="684" y2="592" stroke="#1d3b29" stroke-width="1"/>
<line x1="724" y1="112" x2="724" y2="592" stroke="#1d3b29" stroke-width="1"/>
<line x1="764" y1="112" x2="764" y2="592" stroke="#1d3b29" stroke-width="1"/>
<line x1="804" y1="112" x2="804" y2="592" stroke="#1d3b29" stroke-width="1"/>
<line x1="844" y1="112" x2="844" y2="592" stroke="#1d3b29" stroke-width="1"/>
<line x1="884" y1="112" x2="884" y2="592" stroke="#1d3b29" stroke-width="1"/>
<line x1="924" y1="112" x2="924" y2="592" stroke="#1d3b29" stroke-width="1"/>
<line x1="44" y1="112" x2="924" y2="112" stroke="#1d3b29" stroke-width="1"/>
<line x1="44" y1="152" x2="924" y2="152" stroke="#1d3b29" stroke-width="1"/>
<line x1="44" y1="192" x2="924" y2="192" stroke="#1d3b29" stroke-width="1"/>
<line x1="44" y1="232" x2="924" y2="232" stroke="#1d3b29" stroke-width="1"/>
<line x1="44" y1="272" x2="924" y2="272" stroke="#1d3b29" stroke-width="1"/>
<line x1="44" y1="312" x2="924" y2="312" stroke="#1d3b29" stroke-width="1"/>
<line x1="44" y1="352" x2="924" y2="352" stroke="#1d3b29" stroke-width="1"/>
<line x1="44" y1="392" x2="924" y2="392" stroke="#1d3b29" stroke-width="1"/>
<line x1="44" y1="432" x2="924" y2="432" stroke="#1d3b29" stroke-width="1"/>
<line x1="44" y1="472" x2="924" y2="472" stroke="#1d3b29" stroke-width="1"/>
<line x1="44" y1="512" x2="924" y2="512" stroke="#1d3b29" stroke-width="1"/>
<line x1="44" y1="552" x2="924" y2="552" stroke="#1d3b29" stroke-width="1"/>
<line x1="44" y1="592" x2="924" y2="592" stroke="#1d3b29" stroke-width="1"/>
<rect x="44" y="112" width="880" height="480" fill="none" stroke="#46ff7a" stroke-width="2"/>
<rect x="87" y="155" width="74" height="34" rx="4" fill="#12333a" stroke="#3fb0c0" stroke-width="1.5"/>
<rect x="87" y="515" width="74" height="34" rx="4" fill="#12333a" stroke="#3fb0c0" stroke-width="1.5"/>
<rect x="207" y="155" width="74" height="34" rx="4" fill="#12333a" stroke="#3fb0c0" stroke-width="1.5"/>
<rect x="207" y="515" width="74" height="34" rx="4" fill="#12333a" stroke="#3fb0c0" stroke-width="1.5"/>
<rect x="327" y="155" width="74" height="34" rx="4" fill="#12333a" stroke="#3fb0c0" stroke-width="1.5"/>
<rect x="327" y="515" width="74" height="34" rx="4" fill="#12333a" stroke="#3fb0c0" stroke-width="1.5"/>
<rect x="447" y="155" width="74" height="34" rx="4" fill="#12333a" stroke="#3fb0c0" stroke-width="1.5"/>
<rect x="447" y="515" width="74" height="34" rx="4" fill="#12333a" stroke="#3fb0c0" stroke-width="1.5"/>
<rect x="567" y="155" width="74" height="34" rx="4" fill="#12333a" stroke="#3fb0c0" stroke-width="1.5"/>
<rect x="567" y="515" width="74" height="34" rx="4" fill="#12333a" stroke="#3fb0c0" stroke-width="1.5"/>
<rect x="687" y="155" width="74" height="34" rx="4" fill="#12333a" stroke="#3fb0c0" stroke-width="1.5"/>
<rect x="687" y="515" width="74" height="34" rx="4" fill="#12333a" stroke="#3fb0c0" stroke-width="1.5"/>
<rect x="807" y="155" width="74" height="34" rx="4" fill="#12333a" stroke="#3fb0c0" stroke-width="1.5"/>
<rect x="807" y="515" width="74" height="34" rx="4" fill="#12333a" stroke="#3fb0c0" stroke-width="1.5"/>
<line x1="404" y1="112" x2="404" y2="592" stroke="#ff6a4a" stroke-width="2.5" stroke-dasharray="8 6"/>
<text x="414" y="136" fill="#ff7a5a" font-size="17">ZONE CHAUDE → (G À J)</text>
<g transform="translate(464,132)"><circle r="14" fill="#3a1410" stroke="#ff6a4a" stroke-width="2"/><path d="M7.7,0.0 L13.1,-2.1 L13.1,2.1 Z" fill="#e9d27a"/><path d="M6.5,4.2 L12.2,5.3 L9.9,8.9 Z" fill="#e9d27a"/><path d="M3.2,7.0 L7.4,11.1 L3.5,12.8 Z" fill="#e9d27a"/><path d="M-1.1,7.6 L0.2,13.3 L-4.0,12.7 Z" fill="#e9d27a"/><path d="M-5.0,5.8 L-7.0,11.3 L-10.2,8.5 Z" fill="#e9d27a"/><path d="M-7.4,2.2 L-12.0,5.7 L-13.2,1.7 Z" fill="#e9d27a"/><path d="M-7.4,-2.2 L-13.2,-1.7 L-12.0,-5.7 Z" fill="#e9d27a"/><path d="M-5.0,-5.8 L-10.2,-8.5 L-7.0,-11.3 Z" fill="#e9d27a"/><path d="M-1.1,-7.6 L-4.0,-12.7 L0.2,-13.3 Z" fill="#e9d27a"/><path d="M3.2,-7.0 L3.5,-12.8 L7.4,-11.1 Z" fill="#e9d27a"/><path d="M6.5,-4.2 L9.9,-8.9 L12.2,-5.3 Z" fill="#e9d27a"/><circle r="4" fill="#7a1c10"/></g>
<g transform="translate(584,172)"><circle r="14" fill="#3a1410" stroke="#ff6a4a" stroke-width="2"/><path d="M7.7,0.0 L13.1,-2.1 L13.1,2.1 Z" fill="#e9d27a"/><path d="M6.5,4.2 L12.2,5.3 L9.9,8.9 Z" fill="#e9d27a"/><path d="M3.2,7.0 L7.4,11.1 L3.5,12.8 Z" fill="#e9d27a"/><path d="M-1.1,7.6 L0.2,13.3 L-4.0,12.7 Z" fill="#e9d27a"/><path d="M-5.0,5.8 L-7.0,11.3 L-10.2,8.5 Z" fill="#e9d27a"/><path d="M-7.4,2.2 L-12.0,5.7 L-13.2,1.7 Z" fill="#e9d27a"/><path d="M-7.4,-2.2 L-13.2,-1.7 L-12.0,-5.7 Z" fill="#e9d27a"/><path d="M-5.0,-5.8 L-10.2,-8.5 L-7.0,-11.3 Z" fill="#e9d27a"/><path d="M-1.1,-7.6 L-4.0,-12.7 L0.2,-13.3 Z" fill="#e9d27a"/><path d="M3.2,-7.0 L3.5,-12.8 L7.4,-11.1 Z" fill="#e9d27a"/><path d="M6.5,-4.2 L9.9,-8.9 L12.2,-5.3 Z" fill="#e9d27a"/><circle r="4" fill="#7a1c10"/></g>
<g transform="translate(704,132)"><circle r="14" fill="#3a1410" stroke="#ff6a4a" stroke-width="2"/><path d="M7.7,0.0 L13.1,-2.1 L13.1,2.1 Z" fill="#e9d27a"/><path d="M6.5,4.2 L12.2,5.3 L9.9,8.9 Z" fill="#e9d27a"/><path d="M3.2,7.0 L7.4,11.1 L3.5,12.8 Z" fill="#e9d27a"/><path d="M-1.1,7.6 L0.2,13.3 L-4.0,12.7 Z" fill="#e9d27a"/><path d="M-5.0,5.8 L-7.0,11.3 L-10.2,8.5 Z" fill="#e9d27a"/><path d="M-7.4,2.2 L-12.0,5.7 L-13.2,1.7 Z" fill="#e9d27a"/><path d="M-7.4,-2.2 L-13.2,-1.7 L-12.0,-5.7 Z" fill="#e9d27a"/><path d="M-5.0,-5.8 L-10.2,-8.5 L-7.0,-11.3 Z" fill="#e9d27a"/><path d="M-1.1,-7.6 L-4.0,-12.7 L0.2,-13.3 Z" fill="#e9d27a"/><path d="M3.2,-7.0 L3.5,-12.8 L7.4,-11.1 Z" fill="#e9d27a"/><path d="M6.5,-4.2 L9.9,-8.9 L12.2,-5.3 Z" fill="#e9d27a"/><circle r="4" fill="#7a1c10"/></g>
<g transform="translate(824,172)"><circle r="14" fill="#3a1410" stroke="#ff6a4a" stroke-width="2"/><path d="M7.7,0.0 L13.1,-2.1 L13.1,2.1 Z" fill="#e9d27a"/><path d="M6.5,4.2 L12.2,5.3 L9.9,8.9 Z" fill="#e9d27a"/><path d="M3.2,7.0 L7.4,11.1 L3.5,12.8 Z" fill="#e9d27a"/><path d="M-1.1,7.6 L0.2,13.3 L-4.0,12.7 Z" fill="#e9d27a"/><path d="M-5.0,5.8 L-7.0,11.3 L-10.2,8.5 Z" fill="#e9d27a"/><path d="M-7.4,2.2 L-12.0,5.7 L-13.2,1.7 Z" fill="#e9d27a"/><path d="M-7.4,-2.2 L-13.2,-1.7 L-12.0,-5.7 Z" fill="#e9d27a"/><path d="M-5.0,-5.8 L-10.2,-8.5 L-7.0,-11.3 Z" fill="#e9d27a"/><path d="M-1.1,-7.6 L-4.0,-12.7 L0.2,-13.3 Z" fill="#e9d27a"/><path d="M3.2,-7.0 L3.5,-12.8 L7.4,-11.1 Z" fill="#e9d27a"/><path d="M6.5,-4.2 L9.9,-8.9 L12.2,-5.3 Z" fill="#e9d27a"/><circle r="4" fill="#7a1c10"/></g>
<g transform="translate(504,572)"><circle r="14" fill="#3a1410" stroke="#ff6a4a" stroke-width="2"/><path d="M7.7,0.0 L13.1,-2.1 L13.1,2.1 Z" fill="#e9d27a"/><path d="M6.5,4.2 L12.2,5.3 L9.9,8.9 Z" fill="#e9d27a"/><path d="M3.2,7.0 L7.4,11.1 L3.5,12.8 Z" fill="#e9d27a"/><path d="M-1.1,7.6 L0.2,13.3 L-4.0,12.7 Z" fill="#e9d27a"/><path d="M-5.0,5.8 L-7.0,11.3 L-10.2,8.5 Z" fill="#e9d27a"/><path d="M-7.4,2.2 L-12.0,5.7 L-13.2,1.7 Z" fill="#e9d27a"/><path d="M-7.4,-2.2 L-13.2,-1.7 L-12.0,-5.7 Z" fill="#e9d27a"/><path d="M-5.0,-5.8 L-10.2,-8.5 L-7.0,-11.3 Z" fill="#e9d27a"/><path d="M-1.1,-7.6 L-4.0,-12.7 L0.2,-13.3 Z" fill="#e9d27a"/><path d="M3.2,-7.0 L3.5,-12.8 L7.4,-11.1 Z" fill="#e9d27a"/><path d="M6.5,-4.2 L9.9,-8.9 L12.2,-5.3 Z" fill="#e9d27a"/><circle r="4" fill="#7a1c10"/></g>
<g transform="translate(664,572)"><circle r="14" fill="#3a1410" stroke="#ff6a4a" stroke-width="2"/><path d="M7.7,0.0 L13.1,-2.1 L13.1,2.1 Z" fill="#e9d27a"/><path d="M6.5,4.2 L12.2,5.3 L9.9,8.9 Z" fill="#e9d27a"/><path d="M3.2,7.0 L7.4,11.1 L3.5,12.8 Z" fill="#e9d27a"/><path d="M-1.1,7.6 L0.2,13.3 L-4.0,12.7 Z" fill="#e9d27a"/><path d="M-5.0,5.8 L-7.0,11.3 L-10.2,8.5 Z" fill="#e9d27a"/><path d="M-7.4,2.2 L-12.0,5.7 L-13.2,1.7 Z" fill="#e9d27a"/><path d="M-7.4,-2.2 L-13.2,-1.7 L-12.0,-5.7 Z" fill="#e9d27a"/><path d="M-5.0,-5.8 L-10.2,-8.5 L-7.0,-11.3 Z" fill="#e9d27a"/><path d="M-1.1,-7.6 L-4.0,-12.7 L0.2,-13.3 Z" fill="#e9d27a"/><path d="M3.2,-7.0 L3.5,-12.8 L7.4,-11.1 Z" fill="#e9d27a"/><path d="M6.5,-4.2 L9.9,-8.9 L12.2,-5.3 Z" fill="#e9d27a"/><circle r="4" fill="#7a1c10"/></g>
<g transform="translate(784,532)"><circle r="14" fill="#3a1410" stroke="#ff6a4a" stroke-width="2"/><path d="M7.7,0.0 L13.1,-2.1 L13.1,2.1 Z" fill="#e9d27a"/><path d="M6.5,4.2 L12.2,5.3 L9.9,8.9 Z" fill="#e9d27a"/><path d="M3.2,7.0 L7.4,11.1 L3.5,12.8 Z" fill="#e9d27a"/><path d="M-1.1,7.6 L0.2,13.3 L-4.0,12.7 Z" fill="#e9d27a"/><path d="M-5.0,5.8 L-7.0,11.3 L-10.2,8.5 Z" fill="#e9d27a"/><path d="M-7.4,2.2 L-12.0,5.7 L-13.2,1.7 Z" fill="#e9d27a"/><path d="M-7.4,-2.2 L-13.2,-1.7 L-12.0,-5.7 Z" fill="#e9d27a"/><path d="M-5.0,-5.8 L-10.2,-8.5 L-7.0,-11.3 Z" fill="#e9d27a"/><path d="M-1.1,-7.6 L-4.0,-12.7 L0.2,-13.3 Z" fill="#e9d27a"/><path d="M3.2,-7.0 L3.5,-12.8 L7.4,-11.1 Z" fill="#e9d27a"/><path d="M6.5,-4.2 L9.9,-8.9 L12.2,-5.3 Z" fill="#e9d27a"/><circle r="4" fill="#7a1c10"/></g>
<g transform="translate(864,572)"><circle r="14" fill="#3a1410" stroke="#ff6a4a" stroke-width="2"/><path d="M7.7,0.0 L13.1,-2.1 L13.1,2.1 Z" fill="#e9d27a"/><path d="M6.5,4.2 L12.2,5.3 L9.9,8.9 Z" fill="#e9d27a"/><path d="M3.2,7.0 L7.4,11.1 L3.5,12.8 Z" fill="#e9d27a"/><path d="M-1.1,7.6 L0.2,13.3 L-4.0,12.7 Z" fill="#e9d27a"/><path d="M-5.0,5.8 L-7.0,11.3 L-10.2,8.5 Z" fill="#e9d27a"/><path d="M-7.4,2.2 L-12.0,5.7 L-13.2,1.7 Z" fill="#e9d27a"/><path d="M-7.4,-2.2 L-13.2,-1.7 L-12.0,-5.7 Z" fill="#e9d27a"/><path d="M-5.0,-5.8 L-10.2,-8.5 L-7.0,-11.3 Z" fill="#e9d27a"/><path d="M-1.1,-7.6 L-4.0,-12.7 L0.2,-13.3 Z" fill="#e9d27a"/><path d="M3.2,-7.0 L3.5,-12.8 L7.4,-11.1 Z" fill="#e9d27a"/><path d="M6.5,-4.2 L9.9,-8.9 L12.2,-5.3 Z" fill="#e9d27a"/><circle r="4" fill="#7a1c10"/></g>
<rect x="14" y="312" width="32" height="80" fill="#2a2a10" stroke="#ffb347" stroke-width="2"/>
<text x="32" y="356" fill="#ffb347" font-size="14" transform="rotate(-90 32,356)">SAS · ENTRÉE</text>
<rect x="886" y="554" width="36" height="36" fill="#0d2030" stroke="#5db4ff" stroke-width="2"/>
<line x1="892" y1="563" x2="916" y2="563" stroke="#5db4ff" stroke-width="2"/>
<line x1="892" y1="570" x2="916" y2="570" stroke="#5db4ff" stroke-width="2"/>
<line x1="892" y1="577" x2="916" y2="577" stroke="#5db4ff" stroke-width="2"/>
<line x1="892" y1="584" x2="916" y2="584" stroke="#5db4ff" stroke-width="2"/>
<text x="924" y="544" fill="#5db4ff" font-size="14" text-anchor="end">ÉCHELLE ↓ SOUS-SOL</text>
<text x="44" y="626" fill="#cfe3d4" font-size="15">LÉGENDE :</text>
<rect x="136" y="613" width="18" height="15" fill="#12333a" stroke="#3fb0c0" stroke-width="1.5"/>
<text x="161" y="626" fill="#9fb3a5" font-size="14">Bac — couvert</text>
<rect x="287.2" y="613" width="18" height="15" fill="#3a1410" stroke="#ff6a4a" stroke-width="1.5"/>
<text x="312.2" y="626" fill="#9fb3a5" font-size="14">Plante — danger</text>
<rect x="453.2" y="613" width="18" height="15" fill="#13251a" stroke="#46ff7a" stroke-width="1.5"/>
<text x="478.2" y="626" fill="#9fb3a5" font-size="14">Allée centrale</text>
<text x="44" y="652" fill="#5f8f6e" font-size="12.5">Zone chaude : 1 test par rangée franchie · les gueules frappent à 1 case · couvert derrière les bacs.</text>
<text x="44" y="670" fill="#5f8f6e" font-size="12.5">Objectif : rejoindre le SAS (entrée) ou la trappe vers le sous-sol.</text>
</svg>